<svg xmlns="http://www.w3.org/2000/svg" xmlns:xlink="http://www.w3.org/1999/xlink" width="1080" zoomAndPan="magnify" viewBox="0 0 810 809.999993" height="1080" preserveAspectRatio="xMidYMid meet" version="1.0"><defs><clipPath id="id1"><path d="M 12.730469 12.730469 L 797.230469 12.730469 L 797.230469 797.230469 L 12.730469 797.230469 Z M 12.730469 12.730469 " clip-rule="nonzero"/></clipPath></defs><g clip-path="url(#id1)"><path fill="#e5e5e5" d="M 404.980469 91.179688 C 231.671875 91.179688 91.179688 231.671875 91.179688 404.980469 C 91.179688 578.289062 231.671875 718.78125 404.980469 718.78125 C 578.289062 718.78125 718.78125 578.289062 718.78125 404.980469 C 718.78125 231.671875 578.289062 91.179688 404.980469 91.179688 Z M 12.730469 404.980469 C 12.730469 188.347656 188.347656 12.730469 404.980469 12.730469 C 621.613281 12.730469 797.230469 188.347656 797.230469 404.980469 C 797.230469 621.613281 621.613281 797.230469 404.980469 797.230469 C 188.347656 797.230469 12.730469 621.613281 12.730469 404.980469 Z M 12.730469 404.980469 " fill-opacity="1" fill-rule="evenodd"/></g><path fill="#e5e5e5" d="M 404.980469 248.082031 C 361.652344 248.082031 326.53125 283.203125 326.53125 326.53125 C 326.53125 369.859375 361.652344 404.980469 404.980469 404.980469 C 448.308594 404.980469 483.429688 369.859375 483.429688 326.53125 C 483.429688 283.203125 448.308594 248.082031 404.980469 248.082031 Z M 248.082031 326.53125 C 248.082031 239.875 318.328125 169.628906 404.980469 169.628906 C 491.632812 169.628906 561.878906 239.875 561.878906 326.53125 C 561.878906 413.183594 491.632812 483.429688 404.980469 483.429688 C 318.328125 483.429688 248.082031 413.183594 248.082031 326.53125 Z M 248.082031 326.53125 " fill-opacity="1" fill-rule="evenodd"/><path fill="#e5e5e5" d="M 404.976562 581.492188 C 317.914062 581.492188 241.839844 628.746094 201.089844 699.195312 L 133.183594 659.914062 C 187.378906 566.222656 288.777344 503.042969 404.976562 503.042969 C 521.175781 503.042969 622.574219 566.222656 676.773438 659.914062 L 608.863281 699.195312 C 568.113281 628.746094 492.039062 581.492188 404.976562 581.492188 Z M 404.976562 581.492188 " fill-opacity="1" fill-rule="evenodd"/></svg>